<svg data-v-fde0c5aa="" xmlns="http://www.w3.org/2000/svg" viewBox="0 0 300 300" class="iconLeftSlogan"><!----><defs data-v-fde0c5aa=""><!----></defs><rect data-v-fde0c5aa="" fill="transparent" x="0" y="0" width="300px" height="300px" class="logo-background-square"></rect><defs data-v-fde0c5aa=""><!----></defs><g data-v-fde0c5aa="" id="ffec6ffc-336d-4251-8517-379294ff5223" fill="#000000" transform="matrix(2.2306532061661133,0,0,2.2306532061661133,114.44988102328558,116.6116003036948)"><path d="M6.05 11.31L6.05 11.31L6.05 11.31Q6.05 12.66 5.03 13.44L5.03 13.44L5.03 13.44Q4.00 14.22 2.55 14.22L2.55 14.22L2.55 14.22Q1.57 14.22 0.93 13.73L0.93 13.73L0.93 13.73Q0.29 13.23 0.22 12.88L0.22 12.88L0.22 12.88Q0.38 12.42 0.88 11.84L0.88 11.84L0.88 11.84Q1.39 11.27 1.79 11.14L1.79 11.14L1.79 11.14Q2.51 11.61 3.12 13.20L3.12 13.20L3.12 13.20Q4.03 13.17 4.03 12.21L4.03 12.21L4.03 12.21Q4.03 11.68 3.60 10.90L3.60 10.90L3.60 10.90Q3.18 10.12 2.67 9.44L2.67 9.44L2.67 9.44Q2.17 8.76 1.74 7.92L1.74 7.92L1.74 7.92Q1.32 7.07 1.32 6.41L1.32 6.41L1.32 6.41Q1.32 5.35 2.18 4.73L2.18 4.73L2.18 4.73Q3.04 4.12 4.12 4.12L4.12 4.12L4.12 4.12Q5.19 4.12 5.79 4.58L5.79 4.58L5.79 4.58Q6.38 5.04 6.38 5.63L6.38 5.63L6.38 5.63Q6.38 6.22 5.94 6.83L5.94 6.83L5.94 6.83Q5.49 7.45 5.04 7.81L5.04 7.81L4.59 8.18L4.59 8.18Q4.76 8.40 5.00 8.75L5.00 8.75L5.00 8.75Q5.24 9.10 5.64 9.94L5.64 9.94L5.64 9.94Q6.05 10.78 6.05 11.31ZM4.98 6.72L4.98 6.72L4.98 6.72Q5.17 6.54 5.32 6.28L5.32 6.28L5.32 6.28Q5.47 6.02 5.47 5.73L5.47 5.73L5.47 5.73Q5.47 5.45 5.14 5.25L5.14 5.25L5.14 5.25Q4.80 5.05 4.33 5.05L4.33 5.05L4.33 5.05Q3.86 5.05 3.55 5.27L3.55 5.27L3.55 5.27Q3.23 5.49 3.23 5.79L3.23 5.79L3.23 5.79Q3.23 6.09 3.44 6.49L3.44 6.49L3.44 6.49Q3.64 6.89 3.84 7.15L3.84 7.15L4.05 7.42L4.05 7.42Q4.19 7.35 4.49 7.13L4.49 7.13L4.49 7.13Q4.79 6.90 4.98 6.72ZM11.07 8.26L11.07 8.26L11.07 8.26Q11.10 8.23 11.23 7.90L11.23 7.90L11.23 7.90Q11.89 7.90 12.99 8.29L12.99 8.29L12.99 8.29Q12.64 9.45 12.43 10.72L12.43 10.72L12.43 10.72Q12.22 11.98 12.22 12.52L12.22 12.52L12.22 12.52Q12.22 13.06 12.33 13.06L12.33 13.06L12.33 13.06Q12.42 13.06 12.95 12.80L12.95 12.80L13.12 12.71L13.37 13.20L13.37 13.20Q13.24 13.31 13.04 13.48L13.04 13.48L13.04 13.48Q12.84 13.65 12.28 13.94L12.28 13.94L12.28 13.94Q11.72 14.22 11.27 14.22L11.27 14.22L11.27 14.22Q10.40 14.22 10.26 13.44L10.26 13.44L10.26 13.44Q9.37 14.22 8.64 14.22L8.64 14.22L8.64 14.22Q7.92 14.22 7.43 13.66L7.43 13.66L7.43 13.66Q6.93 13.10 6.93 11.90L6.93 11.90L6.93 11.90Q6.93 10.02 7.70 8.94L7.70 8.94L7.70 8.94Q8.47 7.85 9.56 7.85L9.56 7.85L9.56 7.85Q10.35 7.85 11.07 8.26ZM9.48 13.03L9.48 13.03L9.48 13.03Q9.81 13.03 10.23 12.77L10.23 12.77L10.23 12.77Q10.33 10.79 10.89 8.86L10.89 8.86L10.89 8.86Q10.47 8.68 10.18 8.68L10.18 8.68L10.18 8.68Q9.67 8.68 9.32 9.67L9.32 9.67L9.32 9.67Q8.96 10.65 8.96 11.84L8.96 11.84L8.96 11.84Q8.96 13.03 9.48 13.03ZM17.25 4.28L17.25 4.28L17.25 4.28Q17.25 5.35 16.53 8.46L16.53 8.46L16.53 8.46Q17.37 7.85 18.05 7.85L18.05 7.85L18.05 7.85Q18.73 7.85 19.21 8.42L19.21 8.42L19.21 8.42Q19.70 8.99 19.70 10.15L19.70 10.15L19.70 10.15Q19.70 12.10 18.94 13.16L18.94 13.16L18.94 13.16Q18.17 14.22 17.08 14.22L17.08 14.22L17.08 14.22Q16.67 14.22 16.26 14.13L16.26 14.13L16.26 14.13Q15.85 14.03 15.64 13.92L15.64 13.92L15.43 13.82L15.43 13.82Q14.53 14.13 13.68 14.13L13.68 14.13L13.68 14.13Q13.59 14.06 13.59 13.45L13.59 13.45L13.59 13.45Q13.59 12.84 14.38 9.42L14.38 9.42L14.38 9.42Q15.16 5.99 15.16 4.73L15.16 4.73L15.16 4.73Q15.16 4.51 15.09 4.16L15.09 4.16L15.09 4.16Q16.18 3.78 17.18 3.78L17.18 3.78L17.18 3.78Q17.25 3.98 17.25 4.28ZM17.12 9.04L17.12 9.04L17.12 9.04Q16.86 9.04 16.32 9.30L16.32 9.30L16.32 9.30Q15.68 12.01 15.62 13.19L15.62 13.19L15.62 13.19Q16.04 13.37 16.42 13.37L16.42 13.37L16.42 13.37Q16.95 13.37 17.31 12.39L17.31 12.39L17.31 12.39Q17.67 11.41 17.67 10.23L17.67 10.23L17.67 10.23Q17.67 9.04 17.12 9.04ZM29.44 13.38L29.44 13.38Q29.27 13.82 28.92 14.07L28.92 14.07L28.92 14.07Q28.56 14.32 28.08 14.32L28.08 14.32L28.08 14.32Q27.59 14.32 26.64 13.73L26.64 13.73L26.64 13.73Q25.68 13.15 25.10 12.98L25.10 12.98L25.10 12.98Q24.72 13.48 24.25 13.82L24.25 13.82L24.25 13.82Q23.77 14.15 23.59 14.15L23.59 14.15L23.59 14.15Q23.45 14.15 23.03 13.55L23.03 13.55L23.03 13.55Q22.61 12.94 22.61 12.67L22.61 12.67L22.61 12.67Q22.61 12.52 23.05 12.21L23.05 12.21L23.05 12.21Q23.49 11.90 23.98 11.79L23.98 11.79L23.98 11.79Q24.33 10.93 24.71 9.26L24.71 9.26L24.71 9.26Q25.09 7.59 25.30 5.81L25.30 5.81L25.30 5.81Q25.30 5.59 25.15 5.27L25.15 5.27L25.15 5.27Q25.00 4.96 24.85 4.76L24.85 4.76L24.71 4.56L24.75 4.35L24.75 4.35Q25.59 4.12 27.51 4.12L27.51 4.12L27.51 4.12Q27.69 4.42 27.69 5.05L27.69 5.05L27.69 5.05Q27.69 5.68 27.33 6.93L27.33 6.93L27.33 6.93Q26.96 8.18 26.33 9.92L26.33 9.92L26.33 9.92Q25.69 11.66 25.59 11.98L25.59 11.98L25.59 11.98Q25.65 12.00 25.94 12.08L25.94 12.08L25.94 12.08Q26.24 12.17 26.33 12.19L26.33 12.19L26.33 12.19Q26.42 12.21 26.68 12.27L26.68 12.27L26.68 12.27Q26.95 12.33 27.10 12.36L27.10 12.36L27.10 12.36Q27.26 12.38 27.51 12.40L27.51 12.40L27.51 12.40Q27.94 12.47 28.33 12.47L28.33 12.47L28.33 12.47Q28.71 12.47 28.88 12.28L28.88 12.28L29.27 11.55L29.74 11.66L29.74 11.66Q29.74 12.57 29.44 13.38L29.44 13.38ZM34.33 8.26L34.33 8.26L34.33 8.26Q34.36 8.23 34.48 7.90L34.48 7.90L34.48 7.90Q35.14 7.90 36.25 8.29L36.25 8.29L36.25 8.29Q35.90 9.45 35.69 10.72L35.69 10.72L35.69 10.72Q35.48 11.98 35.48 12.52L35.48 12.52L35.48 12.52Q35.48 13.06 35.59 13.06L35.59 13.06L35.59 13.06Q35.67 13.06 36.20 12.80L36.20 12.80L36.37 12.71L36.62 13.20L36.62 13.20Q36.50 13.31 36.30 13.48L36.30 13.48L36.30 13.48Q36.09 13.65 35.53 13.94L35.53 13.94L35.53 13.94Q34.97 14.22 34.52 14.22L34.52 14.22L34.52 14.22Q33.66 14.22 33.52 13.44L33.52 13.44L33.52 13.44Q32.62 14.22 31.90 14.22L31.90 14.22L31.90 14.22Q31.18 14.22 30.68 13.66L30.68 13.66L30.68 13.66Q30.18 13.10 30.18 11.90L30.18 11.90L30.18 11.90Q30.18 10.02 30.95 8.94L30.95 8.94L30.95 8.94Q31.72 7.85 32.82 7.85L32.82 7.85L32.82 7.85Q33.60 7.85 34.33 8.26ZM32.73 13.03L32.73 13.03L32.73 13.03Q33.07 13.03 33.49 12.77L33.49 12.77L33.49 12.77Q33.59 10.79 34.15 8.86L34.15 8.86L34.15 8.86Q33.73 8.68 33.43 8.68L33.43 8.68L33.43 8.68Q32.93 8.68 32.57 9.67L32.57 9.67L32.57 9.67Q32.21 10.65 32.21 11.84L32.21 11.84L32.21 11.84Q32.21 13.03 32.73 13.03ZM38.79 15.57L38.79 15.57L38.79 15.57Q38.32 15.85 38.32 16.11L38.32 16.11L38.32 16.11Q38.32 16.38 38.62 16.38L38.62 16.38L38.62 16.38Q38.92 16.38 39.30 16.09L39.30 16.09L39.30 16.09Q39.68 15.81 39.93 15.16L39.93 15.16L39.93 15.16Q39.26 15.29 38.79 15.57ZM38.11 14.11L38.11 14.11L38.11 14.11Q36.93 14.11 36.93 12.82L36.93 12.82L36.93 12.82Q36.93 12.52 37.21 11.05L37.21 11.05L37.21 11.05Q37.49 9.58 37.49 8.60L37.49 8.60L37.49 8.60Q37.49 8.39 37.44 8.20L37.44 8.20L37.44 8.20Q38.19 7.91 39.51 7.91L39.51 7.91L39.51 7.91Q39.58 8.11 39.58 8.58L39.58 8.58L39.58 8.58Q39.58 9.06 39.27 10.56L39.27 10.56L39.27 10.56Q38.96 12.05 38.96 12.49L38.96 12.49L38.96 12.49Q38.96 12.92 39.33 12.92L39.33 12.92L39.33 12.92Q39.76 12.92 40.38 12.49L40.38 12.49L40.38 12.49Q40.45 11.66 40.94 8.13L40.94 8.13L40.94 8.13Q41.43 7.94 42.70 7.94L42.70 7.94L42.97 7.94L42.97 7.94Q42.70 8.99 42.45 10.96L42.45 10.96L42.45 10.96Q42.20 12.94 42.04 13.71L42.04 13.71L42.04 13.71Q41.75 15.25 40.96 16.22L40.96 16.22L40.96 16.22Q40.17 17.19 38.89 17.19L38.89 17.19L38.89 17.19Q38.39 17.19 37.98 16.93L37.98 16.93L37.98 16.93Q37.56 16.66 37.56 16.24L37.56 16.24L37.56 16.24Q37.56 15.68 38.25 15.22L38.25 15.22L38.25 15.22Q38.93 14.76 40.10 14.50L40.10 14.50L40.10 14.50Q40.22 13.89 40.29 13.31L40.29 13.31L40.29 13.31Q39.16 14.11 38.11 14.11ZM48.08 4.13L48.08 4.13L50.92 4.23L52.40 4.17L52.40 4.17Q52.43 4.33 52.43 4.64L52.43 4.64L52.43 4.64Q52.43 4.96 52.33 5.09L52.33 5.09L52.33 5.09Q52.22 5.22 51.98 5.22L51.98 5.22L51.98 5.22Q51.74 5.22 50.96 5.19L50.96 5.19L50.96 5.19Q50.40 9.88 49.85 12.01L49.85 12.01L49.85 12.01Q49.60 13.05 49.17 13.58L49.17 13.58L49.17 13.58Q48.94 13.85 48.57 14.04L48.57 14.04L48.57 14.04Q48.19 14.22 47.61 14.22L47.61 14.22L47.61 14.22Q47.04 14.22 46.43 13.84L46.43 13.84L46.43 13.84Q45.82 13.45 45.44 12.88L45.44 12.88L45.84 12.45L45.84 12.45Q46.00 12.60 46.35 12.78L46.35 12.78L46.35 12.78Q46.70 12.96 46.96 12.96L46.96 12.96L46.96 12.96Q47.38 12.96 47.69 12.12L47.69 12.12L47.69 12.12Q48.01 11.27 48.34 9.14L48.34 9.14L48.34 9.14Q48.66 7.01 48.66 5.68L48.66 5.68L48.66 5.11L48.66 5.11Q47.56 5.11 47.03 5.24L47.03 5.24L47.03 5.24Q46.84 4.87 46.77 4.28L46.77 4.28L46.77 4.28Q47.12 4.13 48.08 4.13ZM56.06 8.26L56.06 8.26L56.06 8.26Q56.08 8.23 56.21 7.90L56.21 7.90L56.21 7.90Q56.87 7.90 57.97 8.29L57.97 8.29L57.97 8.29Q57.62 9.45 57.41 10.72L57.41 10.72L57.41 10.72Q57.20 11.98 57.20 12.52L57.20 12.52L57.20 12.52Q57.20 13.06 57.32 13.06L57.32 13.06L57.32 13.06Q57.40 13.06 57.93 12.80L57.93 12.80L58.10 12.71L58.35 13.20L58.35 13.20Q58.23 13.31 58.02 13.48L58.02 13.48L58.02 13.48Q57.82 13.65 57.26 13.94L57.26 13.94L57.26 13.94Q56.70 14.22 56.25 14.22L56.25 14.22L56.25 14.22Q55.38 14.22 55.24 13.44L55.24 13.44L55.24 13.44Q54.35 14.22 53.63 14.22L53.63 14.22L53.63 14.22Q52.91 14.22 52.41 13.66L52.41 13.66L52.41 13.66Q51.91 13.10 51.91 11.90L51.91 11.90L51.91 11.90Q51.91 10.02 52.68 8.94L52.68 8.94L52.68 8.94Q53.45 7.85 54.54 7.85L54.54 7.85L54.54 7.85Q55.33 7.85 56.06 8.26ZM54.46 13.03L54.46 13.03L54.46 13.03Q54.80 13.03 55.22 12.77L55.22 12.77L55.22 12.77Q55.31 10.79 55.87 8.86L55.87 8.86L55.87 8.86Q55.45 8.68 55.16 8.68L55.16 8.68L55.16 8.68Q54.66 8.68 54.30 9.67L54.30 9.67L54.30 9.67Q53.94 10.65 53.94 11.84L53.94 11.84L53.94 11.84Q53.94 13.03 54.46 13.03ZM60.56 14.22L60.56 14.22L60.56 14.22Q59.60 14.22 59.05 13.55L59.05 13.55L59.05 13.55Q58.51 12.87 58.51 11.65L58.51 11.65L58.51 11.65Q58.51 10.09 59.34 8.97L59.34 8.97L59.34 8.97Q60.17 7.85 61.64 7.85L61.64 7.85L62.15 7.88L62.15 7.88Q62.38 7.76 62.68 7.76L62.68 7.76L62.68 7.76Q63.78 7.76 63.78 9.84L63.78 9.84L63.78 9.84Q64.36 9.81 64.95 9.69L64.95 9.69L65.17 9.63L65.25 10.18L65.25 10.18Q64.79 10.37 64.01 10.53L64.01 10.53L63.73 10.58L63.73 10.58Q63.46 12.05 62.65 13.14L62.65 13.14L62.65 13.14Q61.84 14.22 60.56 14.22ZM61.32 13.02L61.32 13.02L61.32 13.02Q61.91 13.02 62.38 12.26L62.38 12.26L62.38 12.26Q62.85 11.51 63.03 10.67L63.03 10.67L63.03 10.67Q61.53 10.67 61.53 9.55L61.53 9.55L61.53 9.55Q61.53 9.10 61.71 8.71L61.71 8.71L61.78 8.57L61.78 8.57Q61.73 8.54 61.64 8.54L61.64 8.54L61.64 8.54Q61.56 8.54 61.52 8.57L61.52 8.57L61.52 8.57Q61.17 8.79 60.86 9.62L60.86 9.62L60.86 9.62Q60.55 10.44 60.55 11.51L60.55 11.51L60.55 11.51Q60.55 13.02 61.32 13.02Z"></path></g><defs data-v-fde0c5aa=""><linearGradient data-v-fde0c5aa="" gradientTransform="rotate(25)" id="03995cc4-89b8-46fb-b0f5-8314cbd4452b" x1="0%" y1="0%" x2="100%" y2="0%"><stop data-v-fde0c5aa="" offset="0%" stop-color="#050922" stop-opacity="1"></stop><stop data-v-fde0c5aa="" offset="100%" stop-color="#6EE6C7" stop-opacity="1"></stop></linearGradient></defs><g data-v-fde0c5aa="" id="09bad4d9-56d6-4f40-979b-ea39d6c99595" stroke="none" fill="url(#03995cc4-89b8-46fb-b0f5-8314cbd4452b)" transform="matrix(0.10673897299491465,0,0,0.10673897299491465,34.04396538831914,117.16709308757717)"><path d="M510.7 212.5c-19.8-16.3-38.2-31.4-51.2-46.8 9.1 1.2 18.2 1.9 27.2 1.9 6.2 0 11.9-.4 17.1-1 8.4 20.8 30.3 28.7 49.7 28.7 40.6 0 82.6-34 82.6-90.9 0-25.2-9.6-48.1-27.1-64.7-20-19-49.8-29.1-86-29.1h-2.9c-108.3 1.2-143.4 79.6-143.4 117.8v.4l-8.4-2.7c-48.3-15.5-98.4-31.6-154.4-31.6-51.4 0-93.2 13.8-121 40C69 157 55.8 188.4 55.8 222.8c0 58.5 40.2 121.7 105 121.7 43.4 0 62.8-27.9 63.5-29.1 2.4-3.6 1.5-8.4-2.1-10.8-3.5-2.4-8.4-1.5-10.8 2-.7.9-15.9 22.3-50.7 22.3-43 0-89.4-40.6-89.4-106.1 0-30.1 11.4-57.4 32.2-76.9 24.9-23.4 63-35.7 110.3-35.7 53.6 0 102.4 15.7 149.6 30.8 4.8 1.6 9.5 3 14.2 4.6 6.6 56 45.2 95.3 82.5 133.4 38 38.8 73.9 75.4 73.9 126.9 0 34.4-8.4 60.5-21.8 79.8 2.1-13.5 3.4-27.6 3.4-41.9 0-54.2-32-110.8-79.6-140.9-39.1-24.8-82.1-28.3-120.9-9.9-49.6 23.4-74.2 77.6-61.4 134.8C266.1 482.7 317 547 419.8 547v.5h2.3c7.5 0 31.3-.5 60.1-6.6-10.5 30.9-21.9 51.7-22.1 52.1-2.1 3.8-.7 8.5 3 10.6 1.2.7 2.5 1 3.7 1 2.8 0 5.4-1.4 6.9-4 1-1.8 14.9-27.2 26.4-64 28.4-7.9 59.2-21.5 83-44.8 26.8-26.2 40.4-60.6 40.4-102.1.2-84.4-59.8-133.7-112.8-177.2zm5.1-65.7c0-18.8 12.7-39.9 29.6-39.9 4.4 0 4.5 7.1 4.5 7.9 0 7.9-4.9 16.6-13 23.1-4.5 3.6-11.2 7.6-21 10.4-.1-.5-.1-1-.1-1.5zm6.5-120.6h.3c32.3 0 58.5 8.6 75.6 24.8 14.4 13.6 22.3 32.5 22.3 53.4 0 47.1-34 75.3-66.9 75.3-19.7 0-29.3-7.8-33.7-16.2 12.5-3.5 21.1-8.7 26.9-13.3 11.8-9.5 18.9-22.7 18.9-35.3 0-13.6-8.4-23.6-20.1-23.6-12.6 0-24.4 6.5-33.1 18.4-7.7 10.4-12.1 24-12.1 37.1 0 1.6.1 3 .2 4.5-4.2.5-8.7.7-13.7.7-13 0-26.2-1.5-39.7-4.1-4.5-8.4-7.1-17-7.1-26.1 0-32.3 8.6-57.1 25.6-73.5 20.1-19.5 46.7-21.8 54.4-22.1h2.2zM269 424.3c-11.4-50.7 9.3-96.7 52.8-117.3 14.2-6.7 29.1-10 44.1-10 20.7 0 41.8 6.4 61.8 19 43.2 27.4 72.3 78.7 72.3 127.7 0 22.1-3.3 43.9-8 63.7-21.2 16.9-47.5 24-72 24-93.7 0-139.9-57.7-151-107.1z"></path></g><defs data-v-fde0c5aa=""><!----></defs><g data-v-fde0c5aa="" id="025960c6-9753-418a-8a87-2adf3bcce40f" fill="#000000" transform="matrix(0.7909021993219926,0,0,0.7909021993219926,114.71917210923,163.62781489315742)"><path d="M0.28 3.21L2.80 3.21L2.80 12.60L3.22 12.60L3.22 3.21L5.74 3.21L5.74 2.80L0.28 2.80ZM12.92 7.32C13.30 7.03 13.64 6.81 13.96 6.66C14.29 6.51 14.69 6.44 15.16 6.44C16.30 6.44 16.87 6.95 16.87 7.98L16.87 9.13C16.38 8.82 15.75 8.67 14.99 8.67C14.30 8.67 13.71 8.85 13.21 9.21C12.71 9.56 12.46 10.07 12.46 10.71C12.46 11.39 12.67 11.90 13.09 12.24C13.51 12.57 14.01 12.74 14.60 12.74C15.20 12.74 15.70 12.61 16.09 12.35C16.49 12.09 16.75 11.74 16.87 11.31L16.87 12.60L17.29 12.60L17.29 7.98C17.29 7.34 17.12 6.85 16.79 6.52C16.45 6.19 15.91 6.02 15.16 6.02C14.80 6.02 14.45 6.07 14.12 6.18C13.79 6.29 13.54 6.40 13.36 6.50C13.19 6.61 12.97 6.76 12.70 6.96ZM12.89 10.71C12.89 10.20 13.09 9.79 13.49 9.50C13.89 9.21 14.39 9.06 14.99 9.06C15.67 9.06 16.29 9.23 16.87 9.56L16.87 10.36C16.87 10.94 16.65 11.41 16.21 11.79C15.77 12.16 15.26 12.35 14.67 12.35C14.11 12.35 13.68 12.21 13.36 11.93C13.05 11.65 12.89 11.24 12.89 10.71ZM26.39 1.68L26.39 12.60L26.81 12.60L26.81 8.90L30.09 12.60L30.66 12.60L27.30 8.82L30.38 6.16L29.75 6.16L26.81 8.69L26.81 1.68ZM43.46 9.06L38.61 9.06C38.63 8.38 38.88 7.77 39.36 7.25C39.84 6.73 40.42 6.47 41.10 6.47C41.79 6.47 42.35 6.72 42.78 7.24C43.22 7.75 43.45 8.36 43.46 9.06ZM38.58 9.48L43.89 9.48C43.90 9.43 43.90 9.38 43.90 9.32C43.90 8.33 43.64 7.53 43.13 6.94C42.61 6.34 41.93 6.05 41.10 6.05C40.25 6.05 39.55 6.36 38.99 6.99C38.43 7.61 38.15 8.41 38.15 9.38C38.15 10.33 38.44 11.13 39.03 11.76C39.62 12.39 40.31 12.71 41.10 12.71C42.34 12.71 43.26 12.13 43.86 10.96L43.50 10.74C42.96 11.76 42.17 12.28 41.13 12.28C40.44 12.28 39.85 12.01 39.35 11.47C38.86 10.92 38.60 10.26 38.58 9.48ZM64.41 7.48L68.75 7.48L68.75 7.08L64.41 7.08L64.41 3.21L69.03 3.21L69.03 2.80L63.99 2.80L63.99 12.60L69.03 12.60L69.03 12.19L64.41 12.19ZM77.29 6.16L80.09 12.95L82.89 6.16L82.40 6.16L80.09 12.01L77.78 6.16ZM95.97 9.06L91.13 9.06C91.14 8.38 91.39 7.77 91.87 7.25C92.36 6.73 92.94 6.47 93.62 6.47C94.30 6.47 94.86 6.72 95.30 7.24C95.74 7.75 95.96 8.36 95.97 9.06ZM91.10 9.48L96.40 9.48C96.41 9.43 96.42 9.38 96.42 9.32C96.42 8.33 96.16 7.53 95.64 6.94C95.12 6.34 94.45 6.05 93.62 6.05C92.77 6.05 92.06 6.36 91.50 6.99C90.94 7.61 90.66 8.41 90.66 9.38C90.66 10.33 90.96 11.13 91.55 11.76C92.13 12.39 92.82 12.71 93.62 12.71C94.85 12.71 95.77 12.13 96.38 10.96L96.01 10.74C95.47 11.76 94.68 12.28 93.65 12.28C92.96 12.28 92.36 12.01 91.87 11.47C91.37 10.92 91.12 10.26 91.10 9.48ZM107.97 6.96L108.22 6.57C107.86 6.22 107.50 6.05 107.16 6.05C106.37 6.05 105.87 6.51 105.66 7.43L105.66 6.16L105.24 6.16L105.24 12.60L105.66 12.60L105.66 8.68C105.66 8.17 105.78 7.68 106.04 7.21C106.29 6.74 106.61 6.51 107.00 6.51C107.42 6.51 107.74 6.66 107.97 6.96ZM115.64 6.16L118.37 12.32L116.97 15.68L117.46 15.68L121.52 6.16L121.03 6.16L118.62 11.87L116.12 6.16ZM130.20 3.92L130.20 6.16L129.15 6.16L129.15 6.58L130.20 6.58L130.20 12.60L130.62 12.60L130.62 6.58L131.67 6.58L131.67 6.16L130.62 6.16L130.62 3.92ZM140.49 8.68C140.49 8.12 140.69 7.61 141.10 7.15C141.50 6.70 142.01 6.47 142.62 6.47C143.67 6.47 144.20 7.16 144.20 8.54L144.20 12.60L144.62 12.60L144.62 8.40C144.62 7.68 144.46 7.11 144.14 6.68C143.83 6.26 143.36 6.05 142.76 6.05C142.17 6.05 141.68 6.19 141.30 6.46C140.92 6.74 140.65 7.12 140.49 7.62L140.49 1.68L140.07 1.68L140.07 12.60L140.49 12.60ZM154 3.15C154 3.26 154.03 3.36 154.10 3.43C154.18 3.50 154.27 3.54 154.39 3.54C154.51 3.54 154.61 3.50 154.68 3.43C154.75 3.36 154.78 3.26 154.78 3.15C154.78 3.04 154.75 2.94 154.68 2.87C154.61 2.80 154.51 2.76 154.39 2.76C154.27 2.76 154.18 2.80 154.10 2.87C154.03 2.94 154 3.04 154 3.15ZM154.18 6.16L154.18 12.60L154.60 12.60L154.60 6.16ZM164.58 8.68C164.58 8.12 164.79 7.61 165.19 7.15C165.60 6.70 166.11 6.47 166.71 6.47C167.77 6.47 168.29 7.16 168.29 8.54L168.29 12.60L168.71 12.60L168.71 8.40C168.71 7.68 168.56 7.11 168.24 6.68C167.92 6.26 167.46 6.05 166.85 6.05C166.26 6.05 165.78 6.19 165.40 6.46C165.01 6.74 164.74 7.12 164.58 7.62L164.58 6.16L164.16 6.16L164.16 12.60L164.58 12.60ZM177.97 9.38C177.97 8.48 178.24 7.77 178.77 7.25C179.31 6.73 179.92 6.47 180.61 6.47C181.38 6.47 182.01 6.75 182.52 7.31C183.02 7.87 183.27 8.56 183.27 9.38C183.27 10.20 183.02 10.89 182.52 11.45C182.01 12.01 181.38 12.29 180.61 12.29C179.92 12.29 179.31 12.03 178.77 11.51C178.24 10.99 177.97 10.28 177.97 9.38ZM177.73 13.02C177.73 13.86 177.99 14.54 178.50 15.05C179.01 15.56 179.70 15.82 180.57 15.82C181.49 15.82 182.24 15.53 182.82 14.95C183.40 14.36 183.69 13.53 183.69 12.46L183.69 6.16L183.27 6.16L183.27 8.04C183.07 7.44 182.73 6.96 182.27 6.59C181.81 6.23 181.27 6.05 180.66 6.05C179.76 6.05 179.02 6.35 178.42 6.96C177.83 7.56 177.53 8.37 177.53 9.38C177.53 10.39 177.83 11.20 178.42 11.80C179.02 12.41 179.76 12.71 180.66 12.71C181.27 12.71 181.81 12.53 182.27 12.17C182.73 11.80 183.07 11.32 183.27 10.72L183.27 12.46C183.27 13.40 183.02 14.13 182.50 14.64C181.99 15.15 181.35 15.40 180.57 15.40C179.83 15.40 179.25 15.18 178.81 14.74C178.37 14.30 178.15 13.73 178.15 13.02Z"></path></g></svg>