<svg data-v-fde0c5aa="" xmlns="http://www.w3.org/2000/svg" viewBox="0 0 300 300" class="font"><!----><defs data-v-fde0c5aa=""><!----></defs><rect data-v-fde0c5aa="" fill="transparent" x="0" y="0" width="300px" height="300px" class="logo-background-square"></rect><defs data-v-fde0c5aa=""><linearGradient data-v-fde0c5aa="" gradientTransform="rotate(25)" id="ccf572fa-7832-4fa1-8dae-ce063083c29a" x1="0%" y1="0%" x2="100%" y2="0%"><stop data-v-fde0c5aa="" offset="0%" stop-color="#050922" stop-opacity="1"></stop><stop data-v-fde0c5aa="" offset="100%" stop-color="#6EE6C7" stop-opacity="1"></stop></linearGradient></defs><g data-v-fde0c5aa="" id="8b94d534-6619-4297-9f54-1c21a1f39e29" fill="url(#ccf572fa-7832-4fa1-8dae-ce063083c29a)" transform="matrix(3.3830540385930283,0,0,3.3830540385930283,39.255728115542446,114.5286771470827)"><path d="M6.05 11.31L6.05 11.31L6.05 11.31Q6.05 12.66 5.03 13.44L5.03 13.44L5.03 13.44Q4.00 14.22 2.55 14.22L2.55 14.22L2.55 14.22Q1.57 14.22 0.93 13.73L0.93 13.73L0.93 13.73Q0.29 13.23 0.22 12.88L0.22 12.88L0.22 12.88Q0.38 12.42 0.88 11.84L0.88 11.84L0.88 11.84Q1.39 11.27 1.79 11.14L1.79 11.14L1.79 11.14Q2.51 11.61 3.12 13.20L3.12 13.20L3.12 13.20Q4.03 13.17 4.03 12.21L4.03 12.21L4.03 12.21Q4.03 11.68 3.60 10.90L3.60 10.90L3.60 10.90Q3.18 10.12 2.67 9.44L2.67 9.44L2.67 9.44Q2.17 8.76 1.74 7.92L1.74 7.92L1.74 7.92Q1.32 7.07 1.32 6.41L1.32 6.41L1.32 6.41Q1.32 5.35 2.18 4.73L2.18 4.73L2.18 4.73Q3.04 4.12 4.12 4.12L4.12 4.12L4.12 4.12Q5.19 4.12 5.79 4.58L5.79 4.58L5.79 4.58Q6.38 5.04 6.38 5.63L6.38 5.63L6.38 5.63Q6.38 6.22 5.94 6.83L5.94 6.83L5.94 6.83Q5.49 7.45 5.04 7.81L5.04 7.81L4.59 8.18L4.59 8.18Q4.76 8.40 5.00 8.75L5.00 8.75L5.00 8.75Q5.24 9.10 5.64 9.94L5.64 9.94L5.64 9.94Q6.05 10.78 6.05 11.31ZM4.98 6.72L4.98 6.72L4.98 6.72Q5.17 6.54 5.32 6.28L5.32 6.28L5.32 6.28Q5.47 6.02 5.47 5.73L5.47 5.73L5.47 5.73Q5.47 5.45 5.14 5.25L5.14 5.25L5.14 5.25Q4.80 5.05 4.33 5.05L4.33 5.05L4.33 5.05Q3.86 5.05 3.55 5.27L3.55 5.27L3.55 5.27Q3.23 5.49 3.23 5.79L3.23 5.79L3.23 5.79Q3.23 6.09 3.44 6.49L3.44 6.49L3.44 6.49Q3.64 6.89 3.84 7.15L3.84 7.15L4.05 7.42L4.05 7.42Q4.19 7.35 4.49 7.13L4.49 7.13L4.49 7.13Q4.79 6.90 4.98 6.72ZM11.07 8.26L11.07 8.26L11.07 8.26Q11.10 8.23 11.23 7.90L11.23 7.90L11.23 7.90Q11.89 7.90 12.99 8.29L12.99 8.29L12.99 8.29Q12.64 9.45 12.43 10.72L12.43 10.72L12.43 10.72Q12.22 11.98 12.22 12.52L12.22 12.52L12.22 12.52Q12.22 13.06 12.33 13.06L12.33 13.06L12.33 13.06Q12.42 13.06 12.95 12.80L12.95 12.80L13.12 12.71L13.37 13.20L13.37 13.20Q13.24 13.31 13.04 13.48L13.04 13.48L13.04 13.48Q12.84 13.65 12.28 13.94L12.28 13.94L12.28 13.94Q11.72 14.22 11.27 14.22L11.27 14.22L11.27 14.22Q10.40 14.22 10.26 13.44L10.26 13.44L10.26 13.44Q9.37 14.22 8.64 14.22L8.64 14.22L8.64 14.22Q7.92 14.22 7.43 13.66L7.43 13.66L7.43 13.66Q6.93 13.10 6.93 11.90L6.93 11.90L6.93 11.90Q6.93 10.02 7.70 8.94L7.70 8.94L7.70 8.94Q8.47 7.85 9.56 7.85L9.56 7.85L9.56 7.85Q10.35 7.85 11.07 8.26ZM9.48 13.03L9.48 13.03L9.48 13.03Q9.81 13.03 10.23 12.77L10.23 12.77L10.23 12.77Q10.33 10.79 10.89 8.86L10.89 8.86L10.89 8.86Q10.47 8.68 10.18 8.68L10.18 8.68L10.18 8.68Q9.67 8.68 9.32 9.67L9.32 9.67L9.32 9.67Q8.96 10.65 8.96 11.84L8.96 11.84L8.96 11.84Q8.96 13.03 9.48 13.03ZM17.25 4.28L17.25 4.28L17.25 4.28Q17.25 5.35 16.53 8.46L16.53 8.46L16.53 8.46Q17.37 7.85 18.05 7.85L18.05 7.85L18.05 7.85Q18.73 7.85 19.21 8.42L19.21 8.42L19.21 8.42Q19.70 8.99 19.70 10.15L19.70 10.15L19.70 10.15Q19.70 12.10 18.94 13.16L18.94 13.16L18.94 13.16Q18.17 14.22 17.08 14.22L17.08 14.22L17.08 14.22Q16.67 14.22 16.26 14.13L16.26 14.13L16.26 14.13Q15.85 14.03 15.64 13.92L15.64 13.92L15.43 13.82L15.43 13.82Q14.53 14.13 13.68 14.13L13.68 14.13L13.68 14.13Q13.59 14.06 13.59 13.45L13.59 13.45L13.59 13.45Q13.59 12.84 14.38 9.42L14.38 9.42L14.38 9.42Q15.16 5.99 15.16 4.73L15.16 4.73L15.16 4.73Q15.16 4.51 15.09 4.16L15.09 4.16L15.09 4.16Q16.18 3.78 17.18 3.78L17.18 3.78L17.18 3.78Q17.25 3.98 17.25 4.28ZM17.12 9.04L17.12 9.04L17.12 9.04Q16.86 9.04 16.32 9.30L16.32 9.30L16.32 9.30Q15.68 12.01 15.62 13.19L15.62 13.19L15.62 13.19Q16.04 13.37 16.42 13.37L16.42 13.37L16.42 13.37Q16.95 13.37 17.31 12.39L17.31 12.39L17.31 12.39Q17.67 11.41 17.67 10.23L17.67 10.23L17.67 10.23Q17.67 9.04 17.12 9.04ZM29.44 13.38L29.44 13.38Q29.27 13.82 28.92 14.07L28.92 14.07L28.92 14.07Q28.56 14.32 28.08 14.32L28.08 14.32L28.08 14.32Q27.59 14.32 26.64 13.73L26.64 13.73L26.64 13.73Q25.68 13.15 25.10 12.98L25.10 12.98L25.10 12.98Q24.72 13.48 24.25 13.82L24.25 13.82L24.25 13.82Q23.77 14.15 23.59 14.15L23.59 14.15L23.59 14.15Q23.45 14.15 23.03 13.55L23.03 13.55L23.03 13.55Q22.61 12.94 22.61 12.67L22.61 12.67L22.61 12.67Q22.61 12.52 23.05 12.21L23.05 12.21L23.05 12.21Q23.49 11.90 23.98 11.79L23.98 11.79L23.98 11.79Q24.33 10.93 24.71 9.26L24.71 9.26L24.71 9.26Q25.09 7.59 25.30 5.81L25.30 5.81L25.30 5.81Q25.30 5.59 25.15 5.27L25.15 5.27L25.15 5.27Q25.00 4.96 24.85 4.76L24.85 4.76L24.71 4.56L24.75 4.35L24.75 4.35Q25.59 4.12 27.51 4.12L27.51 4.12L27.51 4.12Q27.69 4.42 27.69 5.05L27.69 5.05L27.69 5.05Q27.69 5.68 27.33 6.93L27.33 6.93L27.33 6.93Q26.96 8.18 26.33 9.92L26.33 9.92L26.33 9.92Q25.69 11.66 25.59 11.98L25.59 11.98L25.59 11.98Q25.65 12.00 25.94 12.08L25.94 12.08L25.94 12.08Q26.24 12.17 26.33 12.19L26.33 12.19L26.33 12.19Q26.42 12.21 26.68 12.27L26.68 12.27L26.68 12.27Q26.95 12.33 27.10 12.36L27.10 12.36L27.10 12.36Q27.26 12.38 27.51 12.40L27.51 12.40L27.51 12.40Q27.94 12.47 28.33 12.47L28.33 12.47L28.33 12.47Q28.71 12.47 28.88 12.28L28.88 12.28L29.27 11.55L29.74 11.66L29.74 11.66Q29.74 12.57 29.44 13.38L29.44 13.38ZM34.33 8.26L34.33 8.26L34.33 8.26Q34.36 8.23 34.48 7.90L34.48 7.90L34.48 7.90Q35.14 7.90 36.25 8.29L36.25 8.29L36.25 8.29Q35.90 9.45 35.69 10.72L35.69 10.72L35.69 10.72Q35.48 11.98 35.48 12.52L35.48 12.52L35.48 12.52Q35.48 13.06 35.59 13.06L35.59 13.06L35.59 13.06Q35.67 13.06 36.20 12.80L36.20 12.80L36.37 12.71L36.62 13.20L36.62 13.20Q36.50 13.31 36.30 13.48L36.30 13.48L36.30 13.48Q36.09 13.65 35.53 13.94L35.53 13.94L35.53 13.94Q34.97 14.22 34.52 14.22L34.52 14.22L34.52 14.22Q33.66 14.22 33.52 13.44L33.52 13.44L33.52 13.44Q32.62 14.22 31.90 14.22L31.90 14.22L31.90 14.22Q31.18 14.22 30.68 13.66L30.68 13.66L30.68 13.66Q30.18 13.10 30.18 11.90L30.18 11.90L30.18 11.90Q30.18 10.02 30.95 8.94L30.95 8.94L30.95 8.94Q31.72 7.85 32.82 7.85L32.82 7.85L32.82 7.85Q33.60 7.85 34.33 8.26ZM32.73 13.03L32.73 13.03L32.73 13.03Q33.07 13.03 33.49 12.77L33.49 12.77L33.49 12.77Q33.59 10.79 34.15 8.86L34.15 8.86L34.15 8.86Q33.73 8.68 33.43 8.68L33.43 8.68L33.43 8.68Q32.93 8.68 32.57 9.67L32.57 9.67L32.57 9.67Q32.21 10.65 32.21 11.84L32.21 11.84L32.21 11.84Q32.21 13.03 32.73 13.03ZM38.79 15.57L38.79 15.57L38.79 15.57Q38.32 15.85 38.32 16.11L38.32 16.11L38.32 16.11Q38.32 16.38 38.62 16.38L38.62 16.38L38.62 16.38Q38.92 16.38 39.30 16.09L39.30 16.09L39.30 16.09Q39.68 15.81 39.93 15.16L39.93 15.16L39.93 15.16Q39.26 15.29 38.79 15.57ZM38.11 14.11L38.11 14.11L38.11 14.11Q36.93 14.11 36.93 12.82L36.93 12.82L36.93 12.82Q36.93 12.52 37.21 11.05L37.21 11.05L37.21 11.05Q37.49 9.58 37.49 8.60L37.49 8.60L37.49 8.60Q37.49 8.39 37.44 8.20L37.44 8.20L37.44 8.20Q38.19 7.91 39.51 7.91L39.51 7.91L39.51 7.91Q39.58 8.11 39.58 8.58L39.58 8.58L39.58 8.58Q39.58 9.06 39.27 10.56L39.27 10.56L39.27 10.56Q38.96 12.05 38.96 12.49L38.96 12.49L38.96 12.49Q38.96 12.92 39.33 12.92L39.33 12.92L39.33 12.92Q39.76 12.92 40.38 12.49L40.38 12.49L40.38 12.49Q40.45 11.66 40.94 8.13L40.94 8.13L40.94 8.13Q41.43 7.94 42.70 7.94L42.70 7.94L42.97 7.94L42.97 7.94Q42.70 8.99 42.45 10.96L42.45 10.96L42.45 10.96Q42.20 12.94 42.04 13.71L42.04 13.71L42.04 13.71Q41.75 15.25 40.96 16.22L40.96 16.22L40.96 16.22Q40.17 17.19 38.89 17.19L38.89 17.19L38.89 17.19Q38.39 17.19 37.98 16.93L37.98 16.93L37.98 16.93Q37.56 16.66 37.56 16.24L37.56 16.24L37.56 16.24Q37.56 15.68 38.25 15.22L38.25 15.22L38.25 15.22Q38.93 14.76 40.10 14.50L40.10 14.50L40.10 14.50Q40.22 13.89 40.29 13.31L40.29 13.31L40.29 13.31Q39.16 14.11 38.11 14.11ZM48.08 4.13L48.08 4.13L50.92 4.23L52.40 4.17L52.40 4.17Q52.43 4.33 52.43 4.64L52.43 4.64L52.43 4.64Q52.43 4.96 52.33 5.09L52.33 5.09L52.33 5.09Q52.22 5.22 51.98 5.22L51.98 5.22L51.98 5.22Q51.74 5.22 50.96 5.19L50.96 5.19L50.96 5.19Q50.40 9.88 49.85 12.01L49.85 12.01L49.85 12.01Q49.60 13.05 49.17 13.58L49.17 13.58L49.17 13.58Q48.94 13.85 48.57 14.04L48.57 14.04L48.57 14.04Q48.19 14.22 47.61 14.22L47.61 14.22L47.61 14.22Q47.04 14.22 46.43 13.84L46.43 13.84L46.43 13.84Q45.82 13.45 45.44 12.88L45.44 12.88L45.84 12.45L45.84 12.45Q46.00 12.60 46.35 12.78L46.35 12.78L46.35 12.78Q46.70 12.96 46.96 12.96L46.96 12.96L46.96 12.96Q47.38 12.96 47.69 12.12L47.69 12.12L47.69 12.12Q48.01 11.27 48.34 9.14L48.34 9.14L48.34 9.14Q48.66 7.01 48.66 5.68L48.66 5.68L48.66 5.11L48.66 5.11Q47.56 5.11 47.03 5.24L47.03 5.24L47.03 5.24Q46.84 4.87 46.77 4.28L46.77 4.28L46.77 4.28Q47.12 4.13 48.08 4.13ZM56.06 8.26L56.06 8.26L56.06 8.26Q56.08 8.23 56.21 7.90L56.21 7.90L56.21 7.90Q56.87 7.90 57.97 8.29L57.97 8.29L57.97 8.29Q57.62 9.45 57.41 10.72L57.41 10.72L57.41 10.72Q57.20 11.98 57.20 12.52L57.20 12.52L57.20 12.52Q57.20 13.06 57.32 13.06L57.32 13.06L57.32 13.06Q57.40 13.06 57.93 12.80L57.93 12.80L58.10 12.71L58.35 13.20L58.35 13.20Q58.23 13.31 58.02 13.48L58.02 13.48L58.02 13.48Q57.82 13.65 57.26 13.94L57.26 13.94L57.26 13.94Q56.70 14.22 56.25 14.22L56.25 14.22L56.25 14.22Q55.38 14.22 55.24 13.44L55.24 13.44L55.24 13.44Q54.35 14.22 53.63 14.22L53.63 14.22L53.63 14.22Q52.91 14.22 52.41 13.66L52.41 13.66L52.41 13.66Q51.91 13.10 51.91 11.90L51.91 11.90L51.91 11.90Q51.91 10.02 52.68 8.94L52.68 8.94L52.68 8.94Q53.45 7.85 54.54 7.85L54.54 7.85L54.54 7.85Q55.33 7.85 56.06 8.26ZM54.46 13.03L54.46 13.03L54.46 13.03Q54.80 13.03 55.22 12.77L55.22 12.77L55.22 12.77Q55.31 10.79 55.87 8.86L55.87 8.86L55.87 8.86Q55.45 8.68 55.16 8.68L55.16 8.68L55.16 8.68Q54.66 8.68 54.30 9.67L54.30 9.67L54.30 9.67Q53.94 10.65 53.94 11.84L53.94 11.84L53.94 11.84Q53.94 13.03 54.46 13.03ZM60.56 14.22L60.56 14.22L60.56 14.22Q59.60 14.22 59.05 13.55L59.05 13.55L59.05 13.55Q58.51 12.87 58.51 11.65L58.51 11.65L58.51 11.65Q58.51 10.09 59.34 8.97L59.34 8.97L59.34 8.97Q60.17 7.85 61.64 7.85L61.64 7.85L62.15 7.88L62.15 7.88Q62.38 7.76 62.68 7.76L62.68 7.76L62.68 7.76Q63.78 7.76 63.78 9.84L63.78 9.84L63.78 9.84Q64.36 9.81 64.95 9.69L64.95 9.69L65.17 9.63L65.25 10.18L65.25 10.18Q64.79 10.37 64.01 10.53L64.01 10.53L63.73 10.58L63.73 10.58Q63.46 12.05 62.65 13.14L62.65 13.14L62.65 13.14Q61.84 14.22 60.56 14.22ZM61.32 13.02L61.32 13.02L61.32 13.02Q61.91 13.02 62.38 12.26L62.38 12.26L62.38 12.26Q62.85 11.51 63.03 10.67L63.03 10.67L63.03 10.67Q61.53 10.67 61.53 9.55L61.53 9.55L61.53 9.55Q61.53 9.10 61.71 8.71L61.71 8.71L61.78 8.57L61.78 8.57Q61.73 8.54 61.64 8.54L61.64 8.54L61.64 8.54Q61.56 8.54 61.52 8.57L61.52 8.57L61.52 8.57Q61.17 8.79 60.86 9.62L60.86 9.62L60.86 9.62Q60.55 10.44 60.55 11.51L60.55 11.51L60.55 11.51Q60.55 13.02 61.32 13.02Z"></path></g><!----><!----></svg>